<mxfile host="app.diagrams.net" agent="Mozilla/5.0 (Windows NT 10.0; Win64; x64) AppleWebKit/537.36 (KHTML, like Gecko) Chrome/129.0.0.0 Safari/537.36" version="24.8.1">
  <diagram id="C5RBs43oDa-KdzZeNtuy" name="Page-1">
    <mxGraphModel dx="977" dy="1748" grid="1" gridSize="10" guides="1" tooltips="1" connect="1" arrows="1" fold="1" page="1" pageScale="1" pageWidth="827" pageHeight="1169" math="1" shadow="0">
      <root>
        <mxCell id="WIyWlLk6GJQsqaUBKTNV-0" />
        <mxCell id="WIyWlLk6GJQsqaUBKTNV-1" parent="WIyWlLk6GJQsqaUBKTNV-0" />
        <mxCell id="u3RiiRPmAZO3Tr13F04o-197" value="" style="ellipse;whiteSpace=wrap;html=1;rotation=90;fillColor=none;" vertex="1" parent="WIyWlLk6GJQsqaUBKTNV-1">
          <mxGeometry x="-69.00000000000006" y="1939.21" width="278.75" height="97.19" as="geometry" />
        </mxCell>
        <mxCell id="u3RiiRPmAZO3Tr13F04o-112" style="edgeStyle=orthogonalEdgeStyle;rounded=0;orthogonalLoop=1;jettySize=auto;html=1;exitX=1;exitY=0.5;exitDx=0;exitDy=0;entryX=0;entryY=0.5;entryDx=0;entryDy=0;" edge="1" parent="WIyWlLk6GJQsqaUBKTNV-1" source="u3RiiRPmAZO3Tr13F04o-90" target="u3RiiRPmAZO3Tr13F04o-105">
          <mxGeometry relative="1" as="geometry" />
        </mxCell>
        <mxCell id="u3RiiRPmAZO3Tr13F04o-90" value="" style="rounded=0;whiteSpace=wrap;html=1;fillColor=none;" vertex="1" parent="WIyWlLk6GJQsqaUBKTNV-1">
          <mxGeometry x="161.07" y="272.80999999999995" width="120" height="250" as="geometry" />
        </mxCell>
        <mxCell id="u3RiiRPmAZO3Tr13F04o-113" style="edgeStyle=orthogonalEdgeStyle;rounded=0;orthogonalLoop=1;jettySize=auto;html=1;exitX=0;exitY=0.5;exitDx=0;exitDy=0;entryX=1;entryY=0.5;entryDx=0;entryDy=0;" edge="1" parent="WIyWlLk6GJQsqaUBKTNV-1" source="u3RiiRPmAZO3Tr13F04o-96" target="u3RiiRPmAZO3Tr13F04o-105">
          <mxGeometry relative="1" as="geometry" />
        </mxCell>
        <mxCell id="u3RiiRPmAZO3Tr13F04o-96" value="" style="rounded=0;whiteSpace=wrap;html=1;fillColor=none;" vertex="1" parent="WIyWlLk6GJQsqaUBKTNV-1">
          <mxGeometry x="521.06" y="272.80999999999995" width="120" height="250" as="geometry" />
        </mxCell>
        <mxCell id="u3RiiRPmAZO3Tr13F04o-2" value="&lt;h1 style=&quot;margin-top: 0px;&quot;&gt;Hypothesis &lt;br&gt;Bias Against p = 1&lt;/h1&gt;" style="text;html=1;whiteSpace=wrap;overflow=hidden;rounded=0;fontColor=default;align=center;labelPosition=center;verticalLabelPosition=middle;verticalAlign=middle;glass=0;fillColor=none;gradientColor=none;strokeColor=default;perimeterSpacing=0;" vertex="1" parent="WIyWlLk6GJQsqaUBKTNV-1">
          <mxGeometry x="306" width="216" height="60" as="geometry" />
        </mxCell>
        <mxCell id="u3RiiRPmAZO3Tr13F04o-5" value="evaluate&lt;div&gt;\(p(x_1|\theta_0)\)&lt;br&gt;&lt;/div&gt;" style="rhombus;whiteSpace=wrap;html=1;rounded=1;glass=0;strokeWidth=1;shadow=0;" vertex="1" parent="WIyWlLk6GJQsqaUBKTNV-1">
          <mxGeometry x="166.07" y="285.6099999999999" width="110" height="60" as="geometry" />
        </mxCell>
        <mxCell id="u3RiiRPmAZO3Tr13F04o-8" value="evaluate&lt;div&gt;\(p(x_2|\theta_0)\)&lt;br&gt;&lt;/div&gt;" style="rhombus;whiteSpace=wrap;html=1;rounded=1;glass=0;strokeWidth=1;shadow=0;" vertex="1" parent="WIyWlLk6GJQsqaUBKTNV-1">
          <mxGeometry x="166.07" y="365.6099999999999" width="110" height="60" as="geometry" />
        </mxCell>
        <mxCell id="u3RiiRPmAZO3Tr13F04o-11" value="evaluate&lt;div&gt;\(p(x_n|\theta_0)\)&lt;br&gt;&lt;/div&gt;" style="rhombus;whiteSpace=wrap;html=1;rounded=1;glass=0;strokeWidth=1;shadow=0;" vertex="1" parent="WIyWlLk6GJQsqaUBKTNV-1">
          <mxGeometry x="166.07" y="455.6099999999999" width="110" height="60" as="geometry" />
        </mxCell>
        <mxCell id="u3RiiRPmAZO3Tr13F04o-14" value="\(\dots\)" style="text;html=1;align=center;verticalAlign=middle;whiteSpace=wrap;rounded=0;" vertex="1" parent="WIyWlLk6GJQsqaUBKTNV-1">
          <mxGeometry x="191.07" y="425.6099999999999" width="60" height="30" as="geometry" />
        </mxCell>
        <mxCell id="u3RiiRPmAZO3Tr13F04o-18" value="" style="edgeStyle=orthogonalEdgeStyle;rounded=0;orthogonalLoop=1;jettySize=auto;html=1;" edge="1" parent="WIyWlLk6GJQsqaUBKTNV-1" source="u3RiiRPmAZO3Tr13F04o-15" target="u3RiiRPmAZO3Tr13F04o-17">
          <mxGeometry relative="1" as="geometry">
            <Array as="points">
              <mxPoint x="681.0699999999999" y="260" />
              <mxPoint x="681.0699999999999" y="260" />
            </Array>
          </mxGeometry>
        </mxCell>
        <mxCell id="u3RiiRPmAZO3Tr13F04o-15" value="Sample \(\theta\)&#39;s from prior distribution \(p(\theta)\)&amp;nbsp;&lt;span style=&quot;background-color: initial;&quot;&gt;&lt;b&gt;n_marginal&lt;/b&gt; times&lt;/span&gt;" style="rounded=1;whiteSpace=wrap;html=1;" vertex="1" parent="WIyWlLk6GJQsqaUBKTNV-1">
          <mxGeometry x="606.0699999999999" y="194.21000000000004" width="125" height="60" as="geometry" />
        </mxCell>
        <mxCell id="u3RiiRPmAZO3Tr13F04o-17" value="&lt;h3&gt;\(\theta\)&lt;/h3&gt;" style="ellipse;whiteSpace=wrap;html=1;rounded=1;" vertex="1" parent="WIyWlLk6GJQsqaUBKTNV-1">
          <mxGeometry x="656.0699999999999" y="285.6100000000001" width="50" height="50" as="geometry" />
        </mxCell>
        <mxCell id="u3RiiRPmAZO3Tr13F04o-70" style="edgeStyle=orthogonalEdgeStyle;rounded=0;orthogonalLoop=1;jettySize=auto;html=1;exitX=1;exitY=0.5;exitDx=0;exitDy=0;entryX=0;entryY=0.5;entryDx=0;entryDy=0;" edge="1" parent="WIyWlLk6GJQsqaUBKTNV-1" source="u3RiiRPmAZO3Tr13F04o-56" target="u3RiiRPmAZO3Tr13F04o-67">
          <mxGeometry relative="1" as="geometry" />
        </mxCell>
        <mxCell id="u3RiiRPmAZO3Tr13F04o-81" style="edgeStyle=orthogonalEdgeStyle;rounded=0;orthogonalLoop=1;jettySize=auto;html=1;exitX=0;exitY=0.5;exitDx=0;exitDy=0;entryX=0;entryY=0.5;entryDx=0;entryDy=0;" edge="1" parent="WIyWlLk6GJQsqaUBKTNV-1" source="u3RiiRPmAZO3Tr13F04o-56" target="u3RiiRPmAZO3Tr13F04o-80">
          <mxGeometry relative="1" as="geometry" />
        </mxCell>
        <mxCell id="u3RiiRPmAZO3Tr13F04o-56" value="Sample data sets or sufficient statistic from \(p(x|\theta_0)\)&lt;div&gt;&lt;b&gt;n_datasets&lt;/b&gt; times&lt;/div&gt;" style="rounded=1;whiteSpace=wrap;html=1;fontSize=12;glass=0;strokeWidth=1;shadow=0;" vertex="1" parent="WIyWlLk6GJQsqaUBKTNV-1">
          <mxGeometry x="349.06" y="140" width="130" height="70" as="geometry" />
        </mxCell>
        <mxCell id="u3RiiRPmAZO3Tr13F04o-59" value="\(x_i\) is either a data set or a sufficient statistic" style="text;html=1;align=center;verticalAlign=middle;whiteSpace=wrap;rounded=0;" vertex="1" parent="WIyWlLk6GJQsqaUBKTNV-1">
          <mxGeometry x="121.07" y="180" width="130" height="30" as="geometry" />
        </mxCell>
        <mxCell id="u3RiiRPmAZO3Tr13F04o-63" value="&lt;h3&gt;\(x_1\)&lt;/h3&gt;" style="ellipse;whiteSpace=wrap;html=1;rounded=1;" vertex="1" parent="WIyWlLk6GJQsqaUBKTNV-1">
          <mxGeometry x="732.5699999999999" y="286.4" width="50" height="50" as="geometry" />
        </mxCell>
        <mxCell id="u3RiiRPmAZO3Tr13F04o-64" value="&lt;h3&gt;\(x_2\)&lt;/h3&gt;" style="ellipse;whiteSpace=wrap;html=1;rounded=1;" vertex="1" parent="WIyWlLk6GJQsqaUBKTNV-1">
          <mxGeometry x="732.5699999999999" y="366.4" width="50" height="50" as="geometry" />
        </mxCell>
        <mxCell id="u3RiiRPmAZO3Tr13F04o-65" value="&lt;h3&gt;\(x_n\)&lt;/h3&gt;" style="ellipse;whiteSpace=wrap;html=1;rounded=1;" vertex="1" parent="WIyWlLk6GJQsqaUBKTNV-1">
          <mxGeometry x="732.5699999999999" y="456.4" width="50" height="50" as="geometry" />
        </mxCell>
        <mxCell id="u3RiiRPmAZO3Tr13F04o-66" value="\(\dots\)" style="text;html=1;align=center;verticalAlign=middle;whiteSpace=wrap;rounded=0;" vertex="1" parent="WIyWlLk6GJQsqaUBKTNV-1">
          <mxGeometry x="727.5699999999999" y="416.4" width="60" height="30" as="geometry" />
        </mxCell>
        <mxCell id="u3RiiRPmAZO3Tr13F04o-97" style="edgeStyle=orthogonalEdgeStyle;rounded=0;orthogonalLoop=1;jettySize=auto;html=1;exitX=0.5;exitY=1;exitDx=0;exitDy=0;entryX=1;entryY=0.5;entryDx=0;entryDy=0;" edge="1" parent="WIyWlLk6GJQsqaUBKTNV-1" source="u3RiiRPmAZO3Tr13F04o-67" target="u3RiiRPmAZO3Tr13F04o-96">
          <mxGeometry relative="1" as="geometry" />
        </mxCell>
        <mxCell id="u3RiiRPmAZO3Tr13F04o-67" value="" style="ellipse;whiteSpace=wrap;html=1;rotation=90;fillColor=none;" vertex="1" parent="WIyWlLk6GJQsqaUBKTNV-1">
          <mxGeometry x="618.1999999999999" y="349.2099999999999" width="278.75" height="97.19" as="geometry" />
        </mxCell>
        <mxCell id="u3RiiRPmAZO3Tr13F04o-76" value="&lt;h3&gt;\(x_1\)&lt;/h3&gt;" style="ellipse;whiteSpace=wrap;html=1;rounded=1;" vertex="1" parent="WIyWlLk6GJQsqaUBKTNV-1">
          <mxGeometry x="45.43999999999993" y="286.4000000000001" width="50" height="50" as="geometry" />
        </mxCell>
        <mxCell id="u3RiiRPmAZO3Tr13F04o-77" value="&lt;h3&gt;\(x_2\)&lt;/h3&gt;" style="ellipse;whiteSpace=wrap;html=1;rounded=1;" vertex="1" parent="WIyWlLk6GJQsqaUBKTNV-1">
          <mxGeometry x="45.43999999999993" y="366.4000000000001" width="50" height="50" as="geometry" />
        </mxCell>
        <mxCell id="u3RiiRPmAZO3Tr13F04o-78" value="&lt;h3&gt;\(x_n\)&lt;/h3&gt;" style="ellipse;whiteSpace=wrap;html=1;rounded=1;" vertex="1" parent="WIyWlLk6GJQsqaUBKTNV-1">
          <mxGeometry x="45.43999999999993" y="456.4000000000001" width="50" height="50" as="geometry" />
        </mxCell>
        <mxCell id="u3RiiRPmAZO3Tr13F04o-79" value="\(\dots\)" style="text;html=1;align=center;verticalAlign=middle;whiteSpace=wrap;rounded=0;" vertex="1" parent="WIyWlLk6GJQsqaUBKTNV-1">
          <mxGeometry x="40.43999999999993" y="421.4000000000001" width="60" height="30" as="geometry" />
        </mxCell>
        <mxCell id="u3RiiRPmAZO3Tr13F04o-91" style="edgeStyle=orthogonalEdgeStyle;rounded=0;orthogonalLoop=1;jettySize=auto;html=1;exitX=0.5;exitY=0;exitDx=0;exitDy=0;entryX=0;entryY=0.5;entryDx=0;entryDy=0;" edge="1" parent="WIyWlLk6GJQsqaUBKTNV-1" source="u3RiiRPmAZO3Tr13F04o-80" target="u3RiiRPmAZO3Tr13F04o-90">
          <mxGeometry relative="1" as="geometry" />
        </mxCell>
        <mxCell id="u3RiiRPmAZO3Tr13F04o-80" value="" style="ellipse;whiteSpace=wrap;html=1;rotation=90;fillColor=none;" vertex="1" parent="WIyWlLk6GJQsqaUBKTNV-1">
          <mxGeometry x="-68.94000000000007" y="349.21000000000004" width="278.75" height="97.19" as="geometry" />
        </mxCell>
        <mxCell id="u3RiiRPmAZO3Tr13F04o-95" value="\(\dots\)" style="text;html=1;align=center;verticalAlign=middle;whiteSpace=wrap;rounded=0;" vertex="1" parent="WIyWlLk6GJQsqaUBKTNV-1">
          <mxGeometry x="551.06" y="425.6099999999999" width="60" height="30" as="geometry" />
        </mxCell>
        <mxCell id="u3RiiRPmAZO3Tr13F04o-98" style="edgeStyle=orthogonalEdgeStyle;rounded=0;orthogonalLoop=1;jettySize=auto;html=1;exitX=0.5;exitY=1;exitDx=0;exitDy=0;entryX=1.013;entryY=0.374;entryDx=0;entryDy=0;entryPerimeter=0;" edge="1" parent="WIyWlLk6GJQsqaUBKTNV-1" source="u3RiiRPmAZO3Tr13F04o-17" target="u3RiiRPmAZO3Tr13F04o-96">
          <mxGeometry relative="1" as="geometry" />
        </mxCell>
        <mxCell id="u3RiiRPmAZO3Tr13F04o-100" value="&lt;span style=&quot;text-wrap: nowrap;&quot;&gt;There are&amp;nbsp;&lt;/span&gt;&lt;b style=&quot;text-wrap: nowrap;&quot;&gt;n_marginal&amp;nbsp;&lt;/b&gt;&lt;div&gt;&lt;span style=&quot;text-wrap: nowrap;&quot;&gt;likelihood evaluations of \(x_i\)&lt;/span&gt;&lt;/div&gt;" style="text;html=1;align=center;verticalAlign=middle;whiteSpace=wrap;rounded=0;fillColor=none;" vertex="1" parent="WIyWlLk6GJQsqaUBKTNV-1">
          <mxGeometry x="503.06" y="522.81" width="156" height="40" as="geometry" />
        </mxCell>
        <mxCell id="u3RiiRPmAZO3Tr13F04o-101" value="mean\(\left(p(x_n|\theta)\right)\)&lt;div&gt;&lt;div&gt;\(\approx\)&lt;/div&gt;&lt;div&gt;\(p(x_n)\)&lt;/div&gt;&lt;/div&gt;" style="rounded=0;whiteSpace=wrap;html=1;" vertex="1" parent="WIyWlLk6GJQsqaUBKTNV-1">
          <mxGeometry x="533.56" y="459.51" width="95" height="52.2" as="geometry" />
        </mxCell>
        <mxCell id="u3RiiRPmAZO3Tr13F04o-103" value="mean\(\left(p(x_2|\theta)\right)\)&lt;div&gt;&lt;div&gt;\(\approx\)&lt;/div&gt;&lt;div&gt;\(p(x_2)\)&lt;/div&gt;&lt;/div&gt;" style="rounded=0;whiteSpace=wrap;html=1;" vertex="1" parent="WIyWlLk6GJQsqaUBKTNV-1">
          <mxGeometry x="533.56" y="367.40999999999997" width="95" height="56.4" as="geometry" />
        </mxCell>
        <mxCell id="u3RiiRPmAZO3Tr13F04o-104" value="mean\(\left(p(x_1|\theta)\right)\)&lt;div&gt;\(\approx\)&lt;/div&gt;&lt;div&gt;\(p(x_1)\)&lt;/div&gt;" style="rounded=0;whiteSpace=wrap;html=1;" vertex="1" parent="WIyWlLk6GJQsqaUBKTNV-1">
          <mxGeometry x="533.56" y="287.40999999999997" width="95" height="56.4" as="geometry" />
        </mxCell>
        <mxCell id="u3RiiRPmAZO3Tr13F04o-115" value="" style="edgeStyle=orthogonalEdgeStyle;rounded=0;orthogonalLoop=1;jettySize=auto;html=1;" edge="1" parent="WIyWlLk6GJQsqaUBKTNV-1" source="u3RiiRPmAZO3Tr13F04o-105" target="u3RiiRPmAZO3Tr13F04o-114">
          <mxGeometry relative="1" as="geometry" />
        </mxCell>
        <mxCell id="u3RiiRPmAZO3Tr13F04o-105" value="" style="rounded=0;whiteSpace=wrap;html=1;fillColor=none;" vertex="1" parent="WIyWlLk6GJQsqaUBKTNV-1">
          <mxGeometry x="354.06" y="272.80999999999995" width="120" height="250" as="geometry" />
        </mxCell>
        <mxCell id="u3RiiRPmAZO3Tr13F04o-106" value="\(\dots\)" style="text;html=1;align=center;verticalAlign=middle;whiteSpace=wrap;rounded=0;" vertex="1" parent="WIyWlLk6GJQsqaUBKTNV-1">
          <mxGeometry x="381.06" y="425.6099999999999" width="60" height="30" as="geometry" />
        </mxCell>
        <mxCell id="u3RiiRPmAZO3Tr13F04o-109" value="$$\frac{p(x_1|\theta_0)}{p(x_1)} \leq 1$$" style="rounded=0;whiteSpace=wrap;html=1;" vertex="1" parent="WIyWlLk6GJQsqaUBKTNV-1">
          <mxGeometry x="366" y="287.40999999999997" width="95" height="46.4" as="geometry" />
        </mxCell>
        <mxCell id="u3RiiRPmAZO3Tr13F04o-110" value="$$\frac{p(x_2|\theta_0)}{p(x_2)} \leq 1$$" style="rounded=0;whiteSpace=wrap;html=1;" vertex="1" parent="WIyWlLk6GJQsqaUBKTNV-1">
          <mxGeometry x="366" y="372.40999999999997" width="95" height="46.4" as="geometry" />
        </mxCell>
        <mxCell id="u3RiiRPmAZO3Tr13F04o-111" value="$$\frac{p(x_n|\theta_0)}{p(x_n)} \leq 1$$" style="rounded=0;whiteSpace=wrap;html=1;" vertex="1" parent="WIyWlLk6GJQsqaUBKTNV-1">
          <mxGeometry x="366" y="462.40999999999997" width="95" height="46.4" as="geometry" />
        </mxCell>
        <mxCell id="u3RiiRPmAZO3Tr13F04o-119" value="" style="edgeStyle=orthogonalEdgeStyle;rounded=0;orthogonalLoop=1;jettySize=auto;html=1;" edge="1" parent="WIyWlLk6GJQsqaUBKTNV-1" source="u3RiiRPmAZO3Tr13F04o-114" target="u3RiiRPmAZO3Tr13F04o-118">
          <mxGeometry relative="1" as="geometry" />
        </mxCell>
        <mxCell id="u3RiiRPmAZO3Tr13F04o-114" value="average True/False" style="whiteSpace=wrap;html=1;fillColor=none;rounded=0;" vertex="1" parent="WIyWlLk6GJQsqaUBKTNV-1">
          <mxGeometry x="354.06" y="562.81" width="120" height="32.19" as="geometry" />
        </mxCell>
        <mxCell id="u3RiiRPmAZO3Tr13F04o-118" value="Bias" style="rhombus;whiteSpace=wrap;html=1;fillColor=none;rounded=0;" vertex="1" parent="WIyWlLk6GJQsqaUBKTNV-1">
          <mxGeometry x="374.06" y="639.995" width="80" height="80" as="geometry" />
        </mxCell>
        <mxCell id="u3RiiRPmAZO3Tr13F04o-120" value="" style="endArrow=none;html=1;rounded=0;" edge="1" parent="WIyWlLk6GJQsqaUBKTNV-1">
          <mxGeometry width="50" height="50" relative="1" as="geometry">
            <mxPoint x="820.06" y="740" as="sourcePoint" />
            <mxPoint y="740" as="targetPoint" />
          </mxGeometry>
        </mxCell>
        <mxCell id="u3RiiRPmAZO3Tr13F04o-121" value="&lt;h1 style=&quot;margin-top: 0px;&quot;&gt;Hypothesis &lt;br&gt;Bias In Favor p = 1&lt;/h1&gt;" style="text;html=1;whiteSpace=wrap;overflow=hidden;rounded=0;fontColor=default;align=center;labelPosition=center;verticalLabelPosition=middle;verticalAlign=middle;glass=0;fillColor=none;gradientColor=none;strokeColor=default;perimeterSpacing=0;" vertex="1" parent="WIyWlLk6GJQsqaUBKTNV-1">
          <mxGeometry x="301" y="750" width="225.94" height="60" as="geometry" />
        </mxCell>
        <mxCell id="u3RiiRPmAZO3Tr13F04o-167" style="edgeStyle=orthogonalEdgeStyle;rounded=0;orthogonalLoop=1;jettySize=auto;html=1;exitX=0.5;exitY=1;exitDx=0;exitDy=0;" edge="1" parent="WIyWlLk6GJQsqaUBKTNV-1" source="u3RiiRPmAZO3Tr13F04o-122" target="u3RiiRPmAZO3Tr13F04o-138">
          <mxGeometry relative="1" as="geometry" />
        </mxCell>
        <mxCell id="u3RiiRPmAZO3Tr13F04o-122" value="Choose hypothesis \(\theta_0\) and meaningful difference \(\delta\)" style="rounded=1;whiteSpace=wrap;html=1;" vertex="1" parent="WIyWlLk6GJQsqaUBKTNV-1">
          <mxGeometry x="354" y="830" width="120" height="60" as="geometry" />
        </mxCell>
        <mxCell id="u3RiiRPmAZO3Tr13F04o-124" style="edgeStyle=orthogonalEdgeStyle;rounded=0;orthogonalLoop=1;jettySize=auto;html=1;exitX=0.5;exitY=1;exitDx=0;exitDy=0;entryX=0.5;entryY=0;entryDx=0;entryDy=0;" edge="1" parent="WIyWlLk6GJQsqaUBKTNV-1" source="u3RiiRPmAZO3Tr13F04o-123" target="u3RiiRPmAZO3Tr13F04o-56">
          <mxGeometry relative="1" as="geometry" />
        </mxCell>
        <mxCell id="u3RiiRPmAZO3Tr13F04o-123" value="Choose hypothesis \(\theta_0\)" style="rounded=1;whiteSpace=wrap;html=1;" vertex="1" parent="WIyWlLk6GJQsqaUBKTNV-1">
          <mxGeometry x="348.53000000000003" y="80" width="130.94" height="30" as="geometry" />
        </mxCell>
        <mxCell id="u3RiiRPmAZO3Tr13F04o-125" style="edgeStyle=orthogonalEdgeStyle;rounded=0;orthogonalLoop=1;jettySize=auto;html=1;exitX=1;exitY=0.5;exitDx=0;exitDy=0;entryX=0;entryY=0.5;entryDx=0;entryDy=0;" edge="1" parent="WIyWlLk6GJQsqaUBKTNV-1" source="u3RiiRPmAZO3Tr13F04o-126" target="u3RiiRPmAZO3Tr13F04o-159">
          <mxGeometry relative="1" as="geometry" />
        </mxCell>
        <mxCell id="u3RiiRPmAZO3Tr13F04o-126" value="" style="rounded=0;whiteSpace=wrap;html=1;fillColor=none;" vertex="1" parent="WIyWlLk6GJQsqaUBKTNV-1">
          <mxGeometry x="161.13" y="1052.81" width="120" height="250" as="geometry" />
        </mxCell>
        <mxCell id="u3RiiRPmAZO3Tr13F04o-127" style="edgeStyle=orthogonalEdgeStyle;rounded=0;orthogonalLoop=1;jettySize=auto;html=1;exitX=0;exitY=0.5;exitDx=0;exitDy=0;entryX=1;entryY=0.5;entryDx=0;entryDy=0;" edge="1" parent="WIyWlLk6GJQsqaUBKTNV-1" source="u3RiiRPmAZO3Tr13F04o-128" target="u3RiiRPmAZO3Tr13F04o-159">
          <mxGeometry relative="1" as="geometry" />
        </mxCell>
        <mxCell id="u3RiiRPmAZO3Tr13F04o-128" value="" style="rounded=0;whiteSpace=wrap;html=1;fillColor=none;" vertex="1" parent="WIyWlLk6GJQsqaUBKTNV-1">
          <mxGeometry x="521.12" y="1052.81" width="120" height="250" as="geometry" />
        </mxCell>
        <mxCell id="u3RiiRPmAZO3Tr13F04o-129" value="evaluate&lt;div&gt;\(p(x_1|\theta_0)\)&lt;br&gt;&lt;/div&gt;" style="rhombus;whiteSpace=wrap;html=1;rounded=1;glass=0;strokeWidth=1;shadow=0;" vertex="1" parent="WIyWlLk6GJQsqaUBKTNV-1">
          <mxGeometry x="166.13" y="1065.61" width="110" height="60" as="geometry" />
        </mxCell>
        <mxCell id="u3RiiRPmAZO3Tr13F04o-130" value="evaluate&lt;div&gt;\(p(x_2|\theta_0)\)&lt;br&gt;&lt;/div&gt;" style="rhombus;whiteSpace=wrap;html=1;rounded=1;glass=0;strokeWidth=1;shadow=0;" vertex="1" parent="WIyWlLk6GJQsqaUBKTNV-1">
          <mxGeometry x="166.13" y="1145.61" width="110" height="60" as="geometry" />
        </mxCell>
        <mxCell id="u3RiiRPmAZO3Tr13F04o-131" value="evaluate&lt;div&gt;\(p(x_n|\theta_0)\)&lt;br&gt;&lt;/div&gt;" style="rhombus;whiteSpace=wrap;html=1;rounded=1;glass=0;strokeWidth=1;shadow=0;" vertex="1" parent="WIyWlLk6GJQsqaUBKTNV-1">
          <mxGeometry x="166.13" y="1235.61" width="110" height="60" as="geometry" />
        </mxCell>
        <mxCell id="u3RiiRPmAZO3Tr13F04o-132" value="\(\dots\)" style="text;html=1;align=center;verticalAlign=middle;whiteSpace=wrap;rounded=0;" vertex="1" parent="WIyWlLk6GJQsqaUBKTNV-1">
          <mxGeometry x="191.13" y="1205.61" width="60" height="30" as="geometry" />
        </mxCell>
        <mxCell id="u3RiiRPmAZO3Tr13F04o-133" value="" style="edgeStyle=orthogonalEdgeStyle;rounded=0;orthogonalLoop=1;jettySize=auto;html=1;" edge="1" parent="WIyWlLk6GJQsqaUBKTNV-1" source="u3RiiRPmAZO3Tr13F04o-134" target="u3RiiRPmAZO3Tr13F04o-135">
          <mxGeometry relative="1" as="geometry">
            <Array as="points">
              <mxPoint x="681.13" y="1040" />
              <mxPoint x="681.13" y="1040" />
            </Array>
          </mxGeometry>
        </mxCell>
        <mxCell id="u3RiiRPmAZO3Tr13F04o-134" value="Sample \(\theta\)&#39;s from prior distribution \(p(\theta)\)&amp;nbsp;&lt;span style=&quot;background-color: initial;&quot;&gt;&lt;b&gt;n_marginal&lt;/b&gt; times&lt;/span&gt;" style="rounded=1;whiteSpace=wrap;html=1;" vertex="1" parent="WIyWlLk6GJQsqaUBKTNV-1">
          <mxGeometry x="606.13" y="974.21" width="125" height="60" as="geometry" />
        </mxCell>
        <mxCell id="u3RiiRPmAZO3Tr13F04o-135" value="&lt;h3&gt;\(\theta\)&lt;/h3&gt;" style="ellipse;whiteSpace=wrap;html=1;rounded=1;" vertex="1" parent="WIyWlLk6GJQsqaUBKTNV-1">
          <mxGeometry x="656.13" y="1065.6100000000001" width="50" height="50" as="geometry" />
        </mxCell>
        <mxCell id="u3RiiRPmAZO3Tr13F04o-136" style="edgeStyle=orthogonalEdgeStyle;rounded=0;orthogonalLoop=1;jettySize=auto;html=1;exitX=1;exitY=0.5;exitDx=0;exitDy=0;entryX=0;entryY=0.5;entryDx=0;entryDy=0;" edge="1" parent="WIyWlLk6GJQsqaUBKTNV-1" source="u3RiiRPmAZO3Tr13F04o-138" target="u3RiiRPmAZO3Tr13F04o-145">
          <mxGeometry relative="1" as="geometry" />
        </mxCell>
        <mxCell id="u3RiiRPmAZO3Tr13F04o-137" style="edgeStyle=orthogonalEdgeStyle;rounded=0;orthogonalLoop=1;jettySize=auto;html=1;exitX=0;exitY=0.5;exitDx=0;exitDy=0;entryX=0;entryY=0.5;entryDx=0;entryDy=0;" edge="1" parent="WIyWlLk6GJQsqaUBKTNV-1" source="u3RiiRPmAZO3Tr13F04o-138" target="u3RiiRPmAZO3Tr13F04o-151">
          <mxGeometry relative="1" as="geometry" />
        </mxCell>
        <mxCell id="u3RiiRPmAZO3Tr13F04o-138" value="Sample data sets or sufficient statistic from 1. \(p(x|\theta_0 + \delta)\) (2. \(- \delta\))&lt;div&gt;&lt;b&gt;n_datasets&lt;/b&gt; times&lt;/div&gt;" style="rounded=1;whiteSpace=wrap;html=1;fontSize=12;glass=0;strokeWidth=1;shadow=0;" vertex="1" parent="WIyWlLk6GJQsqaUBKTNV-1">
          <mxGeometry x="349" y="920" width="130" height="70" as="geometry" />
        </mxCell>
        <mxCell id="u3RiiRPmAZO3Tr13F04o-139" value="\(x_i\) is either a data set or a sufficient statistic" style="text;html=1;align=center;verticalAlign=middle;whiteSpace=wrap;rounded=0;" vertex="1" parent="WIyWlLk6GJQsqaUBKTNV-1">
          <mxGeometry x="121.13" y="960" width="130" height="30" as="geometry" />
        </mxCell>
        <mxCell id="u3RiiRPmAZO3Tr13F04o-140" value="&lt;h3&gt;\(x_1\)&lt;/h3&gt;" style="ellipse;whiteSpace=wrap;html=1;rounded=1;" vertex="1" parent="WIyWlLk6GJQsqaUBKTNV-1">
          <mxGeometry x="732.63" y="1066.4" width="50" height="50" as="geometry" />
        </mxCell>
        <mxCell id="u3RiiRPmAZO3Tr13F04o-141" value="&lt;h3&gt;\(x_2\)&lt;/h3&gt;" style="ellipse;whiteSpace=wrap;html=1;rounded=1;" vertex="1" parent="WIyWlLk6GJQsqaUBKTNV-1">
          <mxGeometry x="732.63" y="1146.4" width="50" height="50" as="geometry" />
        </mxCell>
        <mxCell id="u3RiiRPmAZO3Tr13F04o-142" value="&lt;h3&gt;\(x_n\)&lt;/h3&gt;" style="ellipse;whiteSpace=wrap;html=1;rounded=1;" vertex="1" parent="WIyWlLk6GJQsqaUBKTNV-1">
          <mxGeometry x="732.63" y="1236.4" width="50" height="50" as="geometry" />
        </mxCell>
        <mxCell id="u3RiiRPmAZO3Tr13F04o-143" value="\(\dots\)" style="text;html=1;align=center;verticalAlign=middle;whiteSpace=wrap;rounded=0;" vertex="1" parent="WIyWlLk6GJQsqaUBKTNV-1">
          <mxGeometry x="727.63" y="1196.4" width="60" height="30" as="geometry" />
        </mxCell>
        <mxCell id="u3RiiRPmAZO3Tr13F04o-144" style="edgeStyle=orthogonalEdgeStyle;rounded=0;orthogonalLoop=1;jettySize=auto;html=1;exitX=0.5;exitY=1;exitDx=0;exitDy=0;entryX=1;entryY=0.5;entryDx=0;entryDy=0;" edge="1" parent="WIyWlLk6GJQsqaUBKTNV-1" source="u3RiiRPmAZO3Tr13F04o-145" target="u3RiiRPmAZO3Tr13F04o-128">
          <mxGeometry relative="1" as="geometry" />
        </mxCell>
        <mxCell id="u3RiiRPmAZO3Tr13F04o-145" value="" style="ellipse;whiteSpace=wrap;html=1;rotation=90;fillColor=none;" vertex="1" parent="WIyWlLk6GJQsqaUBKTNV-1">
          <mxGeometry x="618.2599999999999" y="1129.21" width="278.75" height="97.19" as="geometry" />
        </mxCell>
        <mxCell id="u3RiiRPmAZO3Tr13F04o-146" value="&lt;h3&gt;\(x_1\)&lt;/h3&gt;" style="ellipse;whiteSpace=wrap;html=1;rounded=1;" vertex="1" parent="WIyWlLk6GJQsqaUBKTNV-1">
          <mxGeometry x="45.499999999999936" y="1066.4" width="50" height="50" as="geometry" />
        </mxCell>
        <mxCell id="u3RiiRPmAZO3Tr13F04o-147" value="&lt;h3&gt;\(x_2\)&lt;/h3&gt;" style="ellipse;whiteSpace=wrap;html=1;rounded=1;" vertex="1" parent="WIyWlLk6GJQsqaUBKTNV-1">
          <mxGeometry x="45.499999999999936" y="1146.4" width="50" height="50" as="geometry" />
        </mxCell>
        <mxCell id="u3RiiRPmAZO3Tr13F04o-148" value="&lt;h3&gt;\(x_n\)&lt;/h3&gt;" style="ellipse;whiteSpace=wrap;html=1;rounded=1;" vertex="1" parent="WIyWlLk6GJQsqaUBKTNV-1">
          <mxGeometry x="45.499999999999936" y="1236.4" width="50" height="50" as="geometry" />
        </mxCell>
        <mxCell id="u3RiiRPmAZO3Tr13F04o-149" value="\(\dots\)" style="text;html=1;align=center;verticalAlign=middle;whiteSpace=wrap;rounded=0;" vertex="1" parent="WIyWlLk6GJQsqaUBKTNV-1">
          <mxGeometry x="40.499999999999936" y="1201.4" width="60" height="30" as="geometry" />
        </mxCell>
        <mxCell id="u3RiiRPmAZO3Tr13F04o-150" style="edgeStyle=orthogonalEdgeStyle;rounded=0;orthogonalLoop=1;jettySize=auto;html=1;exitX=0.5;exitY=0;exitDx=0;exitDy=0;entryX=0;entryY=0.5;entryDx=0;entryDy=0;" edge="1" parent="WIyWlLk6GJQsqaUBKTNV-1" source="u3RiiRPmAZO3Tr13F04o-151" target="u3RiiRPmAZO3Tr13F04o-126">
          <mxGeometry relative="1" as="geometry" />
        </mxCell>
        <mxCell id="u3RiiRPmAZO3Tr13F04o-151" value="" style="ellipse;whiteSpace=wrap;html=1;rotation=90;fillColor=none;" vertex="1" parent="WIyWlLk6GJQsqaUBKTNV-1">
          <mxGeometry x="-68.88000000000005" y="1129.21" width="278.75" height="97.19" as="geometry" />
        </mxCell>
        <mxCell id="u3RiiRPmAZO3Tr13F04o-152" value="\(\dots\)" style="text;html=1;align=center;verticalAlign=middle;whiteSpace=wrap;rounded=0;" vertex="1" parent="WIyWlLk6GJQsqaUBKTNV-1">
          <mxGeometry x="551.12" y="1205.61" width="60" height="30" as="geometry" />
        </mxCell>
        <mxCell id="u3RiiRPmAZO3Tr13F04o-153" style="edgeStyle=orthogonalEdgeStyle;rounded=0;orthogonalLoop=1;jettySize=auto;html=1;exitX=0.5;exitY=1;exitDx=0;exitDy=0;entryX=1.013;entryY=0.374;entryDx=0;entryDy=0;entryPerimeter=0;" edge="1" parent="WIyWlLk6GJQsqaUBKTNV-1" source="u3RiiRPmAZO3Tr13F04o-135" target="u3RiiRPmAZO3Tr13F04o-128">
          <mxGeometry relative="1" as="geometry" />
        </mxCell>
        <mxCell id="u3RiiRPmAZO3Tr13F04o-154" value="&lt;span style=&quot;text-wrap: nowrap;&quot;&gt;There are&amp;nbsp;&lt;/span&gt;&lt;b style=&quot;text-wrap: nowrap;&quot;&gt;n_marginal&amp;nbsp;&lt;/b&gt;&lt;div&gt;&lt;span style=&quot;text-wrap: nowrap;&quot;&gt;likelihood evaluations of \(x_i\)&lt;/span&gt;&lt;/div&gt;" style="text;html=1;align=center;verticalAlign=middle;whiteSpace=wrap;rounded=0;fillColor=none;" vertex="1" parent="WIyWlLk6GJQsqaUBKTNV-1">
          <mxGeometry x="503.12" y="1302.81" width="156" height="40" as="geometry" />
        </mxCell>
        <mxCell id="u3RiiRPmAZO3Tr13F04o-155" value="mean\(\left(p(x_n|\theta)\right)\)&lt;div&gt;&lt;div&gt;\(\approx\)&lt;/div&gt;&lt;div&gt;\(p(x_n)\)&lt;/div&gt;&lt;/div&gt;" style="rounded=0;whiteSpace=wrap;html=1;" vertex="1" parent="WIyWlLk6GJQsqaUBKTNV-1">
          <mxGeometry x="533.62" y="1239.51" width="95" height="52.2" as="geometry" />
        </mxCell>
        <mxCell id="u3RiiRPmAZO3Tr13F04o-156" value="mean\(\left(p(x_2|\theta)\right)\)&lt;div&gt;&lt;div&gt;\(\approx\)&lt;/div&gt;&lt;div&gt;\(p(x_2)\)&lt;/div&gt;&lt;/div&gt;" style="rounded=0;whiteSpace=wrap;html=1;" vertex="1" parent="WIyWlLk6GJQsqaUBKTNV-1">
          <mxGeometry x="533.62" y="1147.4099999999999" width="95" height="56.4" as="geometry" />
        </mxCell>
        <mxCell id="u3RiiRPmAZO3Tr13F04o-157" value="mean\(\left(p(x_1|\theta)\right)\)&lt;div&gt;\(\approx\)&lt;/div&gt;&lt;div&gt;\(p(x_1)\)&lt;/div&gt;" style="rounded=0;whiteSpace=wrap;html=1;" vertex="1" parent="WIyWlLk6GJQsqaUBKTNV-1">
          <mxGeometry x="533.62" y="1067.4099999999999" width="95" height="56.4" as="geometry" />
        </mxCell>
        <mxCell id="u3RiiRPmAZO3Tr13F04o-158" value="" style="edgeStyle=orthogonalEdgeStyle;rounded=0;orthogonalLoop=1;jettySize=auto;html=1;" edge="1" parent="WIyWlLk6GJQsqaUBKTNV-1" source="u3RiiRPmAZO3Tr13F04o-159" target="u3RiiRPmAZO3Tr13F04o-165">
          <mxGeometry relative="1" as="geometry" />
        </mxCell>
        <mxCell id="u3RiiRPmAZO3Tr13F04o-159" value="" style="rounded=0;whiteSpace=wrap;html=1;fillColor=none;" vertex="1" parent="WIyWlLk6GJQsqaUBKTNV-1">
          <mxGeometry x="354" y="1052.81" width="120" height="250" as="geometry" />
        </mxCell>
        <mxCell id="u3RiiRPmAZO3Tr13F04o-160" value="\(\dots\)" style="text;html=1;align=center;verticalAlign=middle;whiteSpace=wrap;rounded=0;" vertex="1" parent="WIyWlLk6GJQsqaUBKTNV-1">
          <mxGeometry x="381" y="1205.61" width="60" height="30" as="geometry" />
        </mxCell>
        <mxCell id="u3RiiRPmAZO3Tr13F04o-161" value="$$\frac{p(x_1|\theta_0)}{p(x_1)} &amp;gt; 1$$" style="rounded=0;whiteSpace=wrap;html=1;" vertex="1" parent="WIyWlLk6GJQsqaUBKTNV-1">
          <mxGeometry x="366" y="1068.1999999999998" width="95" height="46.4" as="geometry" />
        </mxCell>
        <mxCell id="u3RiiRPmAZO3Tr13F04o-162" value="$$\frac{p(x_2|\theta_0)}{p(x_2)} &amp;gt; 1$$" style="rounded=0;whiteSpace=wrap;html=1;" vertex="1" parent="WIyWlLk6GJQsqaUBKTNV-1">
          <mxGeometry x="366" y="1152.4099999999999" width="95" height="46.4" as="geometry" />
        </mxCell>
        <mxCell id="u3RiiRPmAZO3Tr13F04o-163" value="$$\frac{p(x_n|\theta_0)}{p(x_n)} &amp;gt; 1$$" style="rounded=0;whiteSpace=wrap;html=1;" vertex="1" parent="WIyWlLk6GJQsqaUBKTNV-1">
          <mxGeometry x="366" y="1242.4099999999999" width="95" height="46.4" as="geometry" />
        </mxCell>
        <mxCell id="u3RiiRPmAZO3Tr13F04o-164" value="" style="edgeStyle=orthogonalEdgeStyle;rounded=0;orthogonalLoop=1;jettySize=auto;html=1;" edge="1" parent="WIyWlLk6GJQsqaUBKTNV-1" source="u3RiiRPmAZO3Tr13F04o-165" target="u3RiiRPmAZO3Tr13F04o-166">
          <mxGeometry relative="1" as="geometry" />
        </mxCell>
        <mxCell id="u3RiiRPmAZO3Tr13F04o-165" value="average True/False" style="whiteSpace=wrap;html=1;fillColor=none;rounded=0;" vertex="1" parent="WIyWlLk6GJQsqaUBKTNV-1">
          <mxGeometry x="354.12" y="1342.81" width="120" height="32.19" as="geometry" />
        </mxCell>
        <mxCell id="u3RiiRPmAZO3Tr13F04o-166" value="Bias = max(\(\text{bias}_1,\text{bias}_2)\)" style="rhombus;whiteSpace=wrap;html=1;fillColor=none;rounded=0;" vertex="1" parent="WIyWlLk6GJQsqaUBKTNV-1">
          <mxGeometry x="332.06" y="1420" width="164.12" height="80" as="geometry" />
        </mxCell>
        <mxCell id="u3RiiRPmAZO3Tr13F04o-168" value="" style="endArrow=classic;html=1;rounded=0;" edge="1" parent="WIyWlLk6GJQsqaUBKTNV-1">
          <mxGeometry width="50" height="50" relative="1" as="geometry">
            <mxPoint x="414" y="1400" as="sourcePoint" />
            <mxPoint x="349" y="940" as="targetPoint" />
            <Array as="points">
              <mxPoint x="10" y="1400" />
              <mxPoint x="10" y="940" />
            </Array>
          </mxGeometry>
        </mxCell>
        <mxCell id="u3RiiRPmAZO3Tr13F04o-169" value="" style="endArrow=none;html=1;rounded=0;" edge="1" parent="WIyWlLk6GJQsqaUBKTNV-1">
          <mxGeometry width="50" height="50" relative="1" as="geometry">
            <mxPoint y="1520" as="sourcePoint" />
            <mxPoint x="820" y="1520" as="targetPoint" />
          </mxGeometry>
        </mxCell>
        <mxCell id="u3RiiRPmAZO3Tr13F04o-170" style="edgeStyle=orthogonalEdgeStyle;rounded=0;orthogonalLoop=1;jettySize=auto;html=1;exitX=1;exitY=0.5;exitDx=0;exitDy=0;entryX=0;entryY=0.5;entryDx=0;entryDy=0;" edge="1" parent="WIyWlLk6GJQsqaUBKTNV-1" source="u3RiiRPmAZO3Tr13F04o-171" target="u3RiiRPmAZO3Tr13F04o-205">
          <mxGeometry relative="1" as="geometry" />
        </mxCell>
        <mxCell id="u3RiiRPmAZO3Tr13F04o-171" value="" style="rounded=0;whiteSpace=wrap;html=1;fillColor=none;" vertex="1" parent="WIyWlLk6GJQsqaUBKTNV-1">
          <mxGeometry x="161.01" y="1862.81" width="120" height="250" as="geometry" />
        </mxCell>
        <mxCell id="u3RiiRPmAZO3Tr13F04o-172" style="edgeStyle=orthogonalEdgeStyle;rounded=0;orthogonalLoop=1;jettySize=auto;html=1;exitX=0;exitY=0.5;exitDx=0;exitDy=0;entryX=1;entryY=0.5;entryDx=0;entryDy=0;" edge="1" parent="WIyWlLk6GJQsqaUBKTNV-1" source="u3RiiRPmAZO3Tr13F04o-173" target="u3RiiRPmAZO3Tr13F04o-205">
          <mxGeometry relative="1" as="geometry" />
        </mxCell>
        <mxCell id="u3RiiRPmAZO3Tr13F04o-173" value="" style="rounded=0;whiteSpace=wrap;html=1;fillColor=none;" vertex="1" parent="WIyWlLk6GJQsqaUBKTNV-1">
          <mxGeometry x="521" y="1862.81" width="120" height="250" as="geometry" />
        </mxCell>
        <mxCell id="u3RiiRPmAZO3Tr13F04o-174" value="&lt;h1 style=&quot;margin-top: 0px;&quot;&gt;Estimation&lt;br&gt;Bias Against p = 1&lt;/h1&gt;" style="text;html=1;whiteSpace=wrap;overflow=hidden;rounded=0;fontColor=default;align=center;labelPosition=center;verticalLabelPosition=middle;verticalAlign=middle;glass=0;fillColor=none;gradientColor=none;strokeColor=default;perimeterSpacing=0;" vertex="1" parent="WIyWlLk6GJQsqaUBKTNV-1">
          <mxGeometry x="305.94000000000005" y="1540" width="216" height="60" as="geometry" />
        </mxCell>
        <mxCell id="u3RiiRPmAZO3Tr13F04o-175" value="evaluate&lt;div&gt;\(p(x_1|\theta_1)\)&lt;br&gt;&lt;/div&gt;" style="rhombus;whiteSpace=wrap;html=1;rounded=1;glass=0;strokeWidth=1;shadow=0;" vertex="1" parent="WIyWlLk6GJQsqaUBKTNV-1">
          <mxGeometry x="166.01" y="1875.6099999999997" width="110" height="60" as="geometry" />
        </mxCell>
        <mxCell id="u3RiiRPmAZO3Tr13F04o-176" value="evaluate&lt;div&gt;\(p(x_2|\theta_2)\)&lt;br&gt;&lt;/div&gt;" style="rhombus;whiteSpace=wrap;html=1;rounded=1;glass=0;strokeWidth=1;shadow=0;" vertex="1" parent="WIyWlLk6GJQsqaUBKTNV-1">
          <mxGeometry x="166.01" y="1955.6099999999997" width="110" height="60" as="geometry" />
        </mxCell>
        <mxCell id="u3RiiRPmAZO3Tr13F04o-177" value="evaluate&lt;div&gt;\(p(x_n|\theta_n)\)&lt;br&gt;&lt;/div&gt;" style="rhombus;whiteSpace=wrap;html=1;rounded=1;glass=0;strokeWidth=1;shadow=0;" vertex="1" parent="WIyWlLk6GJQsqaUBKTNV-1">
          <mxGeometry x="166.01" y="2045.6099999999997" width="110" height="60" as="geometry" />
        </mxCell>
        <mxCell id="u3RiiRPmAZO3Tr13F04o-178" value="\(\dots\)" style="text;html=1;align=center;verticalAlign=middle;whiteSpace=wrap;rounded=0;" vertex="1" parent="WIyWlLk6GJQsqaUBKTNV-1">
          <mxGeometry x="191.01" y="2015.6099999999997" width="60" height="30" as="geometry" />
        </mxCell>
        <mxCell id="u3RiiRPmAZO3Tr13F04o-179" value="" style="edgeStyle=orthogonalEdgeStyle;rounded=0;orthogonalLoop=1;jettySize=auto;html=1;" edge="1" parent="WIyWlLk6GJQsqaUBKTNV-1" source="u3RiiRPmAZO3Tr13F04o-180" target="u3RiiRPmAZO3Tr13F04o-181">
          <mxGeometry relative="1" as="geometry">
            <Array as="points">
              <mxPoint x="681.01" y="1850" />
              <mxPoint x="681.01" y="1850" />
            </Array>
          </mxGeometry>
        </mxCell>
        <mxCell id="u3RiiRPmAZO3Tr13F04o-180" value="Sample \(\theta\)&#39;s from prior distribution \(p(\theta)\)&amp;nbsp;&lt;span style=&quot;background-color: initial;&quot;&gt;&lt;b&gt;n_marginal&lt;/b&gt; times&lt;/span&gt;" style="rounded=1;whiteSpace=wrap;html=1;" vertex="1" parent="WIyWlLk6GJQsqaUBKTNV-1">
          <mxGeometry x="606.01" y="1784.21" width="125" height="60" as="geometry" />
        </mxCell>
        <mxCell id="u3RiiRPmAZO3Tr13F04o-181" value="&lt;h3&gt;\(\theta\)&lt;/h3&gt;" style="ellipse;whiteSpace=wrap;html=1;rounded=1;" vertex="1" parent="WIyWlLk6GJQsqaUBKTNV-1">
          <mxGeometry x="656.01" y="1875.6100000000001" width="50" height="50" as="geometry" />
        </mxCell>
        <mxCell id="u3RiiRPmAZO3Tr13F04o-182" style="edgeStyle=orthogonalEdgeStyle;rounded=0;orthogonalLoop=1;jettySize=auto;html=1;exitX=1;exitY=0.5;exitDx=0;exitDy=0;entryX=0;entryY=0.5;entryDx=0;entryDy=0;" edge="1" parent="WIyWlLk6GJQsqaUBKTNV-1" source="u3RiiRPmAZO3Tr13F04o-184" target="u3RiiRPmAZO3Tr13F04o-191">
          <mxGeometry relative="1" as="geometry" />
        </mxCell>
        <mxCell id="u3RiiRPmAZO3Tr13F04o-183" style="edgeStyle=orthogonalEdgeStyle;rounded=0;orthogonalLoop=1;jettySize=auto;html=1;exitX=0;exitY=0.5;exitDx=0;exitDy=0;entryX=0;entryY=0.5;entryDx=0;entryDy=0;" edge="1" parent="WIyWlLk6GJQsqaUBKTNV-1" source="u3RiiRPmAZO3Tr13F04o-184" target="u3RiiRPmAZO3Tr13F04o-197">
          <mxGeometry relative="1" as="geometry" />
        </mxCell>
        <mxCell id="u3RiiRPmAZO3Tr13F04o-184" value="Sample a data set or sufficient statistic from \(p(x_i|\theta_i)\)&lt;div&gt;&lt;b&gt;n_datasets&lt;/b&gt; times, one for each \(\theta_i\)&lt;/div&gt;" style="rounded=1;whiteSpace=wrap;html=1;fontSize=12;glass=0;strokeWidth=1;shadow=0;" vertex="1" parent="WIyWlLk6GJQsqaUBKTNV-1">
          <mxGeometry x="349" y="1730" width="130" height="80" as="geometry" />
        </mxCell>
        <mxCell id="u3RiiRPmAZO3Tr13F04o-185" value="\(x_i\) is either a data set or a sufficient statistic" style="text;html=1;align=center;verticalAlign=middle;whiteSpace=wrap;rounded=0;" vertex="1" parent="WIyWlLk6GJQsqaUBKTNV-1">
          <mxGeometry x="121.00999999999999" y="1770" width="130" height="30" as="geometry" />
        </mxCell>
        <mxCell id="u3RiiRPmAZO3Tr13F04o-186" value="&lt;h3&gt;\(x_1\)&lt;/h3&gt;" style="ellipse;whiteSpace=wrap;html=1;rounded=1;" vertex="1" parent="WIyWlLk6GJQsqaUBKTNV-1">
          <mxGeometry x="732.51" y="1876.4" width="50" height="50" as="geometry" />
        </mxCell>
        <mxCell id="u3RiiRPmAZO3Tr13F04o-187" value="&lt;h3&gt;\(x_2\)&lt;/h3&gt;" style="ellipse;whiteSpace=wrap;html=1;rounded=1;" vertex="1" parent="WIyWlLk6GJQsqaUBKTNV-1">
          <mxGeometry x="732.51" y="1956.4" width="50" height="50" as="geometry" />
        </mxCell>
        <mxCell id="u3RiiRPmAZO3Tr13F04o-188" value="&lt;h3&gt;\(x_n\)&lt;/h3&gt;" style="ellipse;whiteSpace=wrap;html=1;rounded=1;" vertex="1" parent="WIyWlLk6GJQsqaUBKTNV-1">
          <mxGeometry x="732.51" y="2046.4" width="50" height="50" as="geometry" />
        </mxCell>
        <mxCell id="u3RiiRPmAZO3Tr13F04o-189" value="\(\dots\)" style="text;html=1;align=center;verticalAlign=middle;whiteSpace=wrap;rounded=0;" vertex="1" parent="WIyWlLk6GJQsqaUBKTNV-1">
          <mxGeometry x="727.51" y="2006.4" width="60" height="30" as="geometry" />
        </mxCell>
        <mxCell id="u3RiiRPmAZO3Tr13F04o-190" style="edgeStyle=orthogonalEdgeStyle;rounded=0;orthogonalLoop=1;jettySize=auto;html=1;exitX=0.5;exitY=1;exitDx=0;exitDy=0;entryX=1;entryY=0.5;entryDx=0;entryDy=0;" edge="1" parent="WIyWlLk6GJQsqaUBKTNV-1" source="u3RiiRPmAZO3Tr13F04o-191" target="u3RiiRPmAZO3Tr13F04o-173">
          <mxGeometry relative="1" as="geometry" />
        </mxCell>
        <mxCell id="u3RiiRPmAZO3Tr13F04o-191" value="" style="ellipse;whiteSpace=wrap;html=1;rotation=90;fillColor=none;" vertex="1" parent="WIyWlLk6GJQsqaUBKTNV-1">
          <mxGeometry x="618.1399999999999" y="1939.21" width="278.75" height="97.19" as="geometry" />
        </mxCell>
        <mxCell id="u3RiiRPmAZO3Tr13F04o-192" value="&lt;h3&gt;\(x_1,\theta_1\)&lt;/h3&gt;" style="ellipse;whiteSpace=wrap;html=1;rounded=1;" vertex="1" parent="WIyWlLk6GJQsqaUBKTNV-1">
          <mxGeometry x="45.37999999999994" y="1876.4" width="50" height="50" as="geometry" />
        </mxCell>
        <mxCell id="u3RiiRPmAZO3Tr13F04o-193" value="&lt;h3&gt;\(x_2,\theta_2\)&lt;/h3&gt;" style="ellipse;whiteSpace=wrap;html=1;rounded=1;" vertex="1" parent="WIyWlLk6GJQsqaUBKTNV-1">
          <mxGeometry x="45.37999999999994" y="1956.4" width="50" height="50" as="geometry" />
        </mxCell>
        <mxCell id="u3RiiRPmAZO3Tr13F04o-194" value="&lt;h3&gt;\(x_n,\theta_n\)&lt;/h3&gt;" style="ellipse;whiteSpace=wrap;html=1;rounded=1;" vertex="1" parent="WIyWlLk6GJQsqaUBKTNV-1">
          <mxGeometry x="45.37999999999994" y="2046.4" width="50" height="50" as="geometry" />
        </mxCell>
        <mxCell id="u3RiiRPmAZO3Tr13F04o-195" value="\(\dots\)" style="text;html=1;align=center;verticalAlign=middle;whiteSpace=wrap;rounded=0;" vertex="1" parent="WIyWlLk6GJQsqaUBKTNV-1">
          <mxGeometry x="40.37999999999994" y="2011.4" width="60" height="30" as="geometry" />
        </mxCell>
        <mxCell id="u3RiiRPmAZO3Tr13F04o-196" style="edgeStyle=orthogonalEdgeStyle;rounded=0;orthogonalLoop=1;jettySize=auto;html=1;exitX=0.5;exitY=0;exitDx=0;exitDy=0;entryX=0;entryY=0.5;entryDx=0;entryDy=0;" edge="1" parent="WIyWlLk6GJQsqaUBKTNV-1" source="u3RiiRPmAZO3Tr13F04o-197" target="u3RiiRPmAZO3Tr13F04o-171">
          <mxGeometry relative="1" as="geometry" />
        </mxCell>
        <mxCell id="u3RiiRPmAZO3Tr13F04o-198" value="\(\dots\)" style="text;html=1;align=center;verticalAlign=middle;whiteSpace=wrap;rounded=0;" vertex="1" parent="WIyWlLk6GJQsqaUBKTNV-1">
          <mxGeometry x="551" y="2015.6099999999997" width="60" height="30" as="geometry" />
        </mxCell>
        <mxCell id="u3RiiRPmAZO3Tr13F04o-199" style="edgeStyle=orthogonalEdgeStyle;rounded=0;orthogonalLoop=1;jettySize=auto;html=1;exitX=0.5;exitY=1;exitDx=0;exitDy=0;entryX=1.013;entryY=0.374;entryDx=0;entryDy=0;entryPerimeter=0;" edge="1" parent="WIyWlLk6GJQsqaUBKTNV-1" source="u3RiiRPmAZO3Tr13F04o-181" target="u3RiiRPmAZO3Tr13F04o-173">
          <mxGeometry relative="1" as="geometry" />
        </mxCell>
        <mxCell id="u3RiiRPmAZO3Tr13F04o-200" value="&lt;span style=&quot;text-wrap: nowrap;&quot;&gt;There are&amp;nbsp;&lt;/span&gt;&lt;b style=&quot;text-wrap: nowrap;&quot;&gt;n_marginal&amp;nbsp;&lt;/b&gt;&lt;div&gt;&lt;span style=&quot;text-wrap: nowrap;&quot;&gt;likelihood evaluations of \(x_i\)&lt;/span&gt;&lt;/div&gt;" style="text;html=1;align=center;verticalAlign=middle;whiteSpace=wrap;rounded=0;fillColor=none;" vertex="1" parent="WIyWlLk6GJQsqaUBKTNV-1">
          <mxGeometry x="503" y="2112.81" width="156" height="40" as="geometry" />
        </mxCell>
        <mxCell id="u3RiiRPmAZO3Tr13F04o-201" value="mean\(\left(p(x_n|\theta)\right)\)&lt;div&gt;&lt;div&gt;\(\approx\)&lt;/div&gt;&lt;div&gt;\(p(x_n)\)&lt;/div&gt;&lt;/div&gt;" style="rounded=0;whiteSpace=wrap;html=1;" vertex="1" parent="WIyWlLk6GJQsqaUBKTNV-1">
          <mxGeometry x="533.5" y="2049.51" width="95" height="52.2" as="geometry" />
        </mxCell>
        <mxCell id="u3RiiRPmAZO3Tr13F04o-202" value="mean\(\left(p(x_2|\theta)\right)\)&lt;div&gt;&lt;div&gt;\(\approx\)&lt;/div&gt;&lt;div&gt;\(p(x_2)\)&lt;/div&gt;&lt;/div&gt;" style="rounded=0;whiteSpace=wrap;html=1;" vertex="1" parent="WIyWlLk6GJQsqaUBKTNV-1">
          <mxGeometry x="533.5" y="1957.4099999999999" width="95" height="56.4" as="geometry" />
        </mxCell>
        <mxCell id="u3RiiRPmAZO3Tr13F04o-203" value="mean\(\left(p(x_1|\theta)\right)\)&lt;div&gt;\(\approx\)&lt;/div&gt;&lt;div&gt;\(p(x_1)\)&lt;/div&gt;" style="rounded=0;whiteSpace=wrap;html=1;" vertex="1" parent="WIyWlLk6GJQsqaUBKTNV-1">
          <mxGeometry x="533.5" y="1877.4099999999999" width="95" height="56.4" as="geometry" />
        </mxCell>
        <mxCell id="u3RiiRPmAZO3Tr13F04o-204" value="" style="edgeStyle=orthogonalEdgeStyle;rounded=0;orthogonalLoop=1;jettySize=auto;html=1;" edge="1" parent="WIyWlLk6GJQsqaUBKTNV-1" source="u3RiiRPmAZO3Tr13F04o-205" target="u3RiiRPmAZO3Tr13F04o-211">
          <mxGeometry relative="1" as="geometry" />
        </mxCell>
        <mxCell id="u3RiiRPmAZO3Tr13F04o-205" value="" style="rounded=0;whiteSpace=wrap;html=1;fillColor=none;" vertex="1" parent="WIyWlLk6GJQsqaUBKTNV-1">
          <mxGeometry x="354" y="1862.81" width="120" height="250" as="geometry" />
        </mxCell>
        <mxCell id="u3RiiRPmAZO3Tr13F04o-206" value="\(\dots\)" style="text;html=1;align=center;verticalAlign=middle;whiteSpace=wrap;rounded=0;" vertex="1" parent="WIyWlLk6GJQsqaUBKTNV-1">
          <mxGeometry x="381" y="2015.6099999999997" width="60" height="30" as="geometry" />
        </mxCell>
        <mxCell id="u3RiiRPmAZO3Tr13F04o-207" value="$$\frac{p(x_1|\theta_1)}{p(x_1)} \leq 1$$" style="rounded=0;whiteSpace=wrap;html=1;" vertex="1" parent="WIyWlLk6GJQsqaUBKTNV-1">
          <mxGeometry x="366" y="1878.1999999999998" width="95" height="46.4" as="geometry" />
        </mxCell>
        <mxCell id="u3RiiRPmAZO3Tr13F04o-208" value="$$\frac{p(x_2|\theta_2)}{p(x_2)} \leq 1$$" style="rounded=0;whiteSpace=wrap;html=1;" vertex="1" parent="WIyWlLk6GJQsqaUBKTNV-1">
          <mxGeometry x="366" y="1962.4099999999999" width="95" height="46.4" as="geometry" />
        </mxCell>
        <mxCell id="u3RiiRPmAZO3Tr13F04o-209" value="$$\frac{p(x_n|\theta_n)}{p(x_n)} \leq 1$$" style="rounded=0;whiteSpace=wrap;html=1;" vertex="1" parent="WIyWlLk6GJQsqaUBKTNV-1">
          <mxGeometry x="366" y="2052.41" width="95" height="46.4" as="geometry" />
        </mxCell>
        <mxCell id="u3RiiRPmAZO3Tr13F04o-210" value="" style="edgeStyle=orthogonalEdgeStyle;rounded=0;orthogonalLoop=1;jettySize=auto;html=1;" edge="1" parent="WIyWlLk6GJQsqaUBKTNV-1" source="u3RiiRPmAZO3Tr13F04o-211" target="u3RiiRPmAZO3Tr13F04o-212">
          <mxGeometry relative="1" as="geometry" />
        </mxCell>
        <mxCell id="u3RiiRPmAZO3Tr13F04o-211" value="average True/False" style="whiteSpace=wrap;html=1;fillColor=none;rounded=0;" vertex="1" parent="WIyWlLk6GJQsqaUBKTNV-1">
          <mxGeometry x="354" y="2152.81" width="120" height="32.19" as="geometry" />
        </mxCell>
        <mxCell id="u3RiiRPmAZO3Tr13F04o-212" value="Bias" style="rhombus;whiteSpace=wrap;html=1;fillColor=none;rounded=0;" vertex="1" parent="WIyWlLk6GJQsqaUBKTNV-1">
          <mxGeometry x="374" y="2229.995" width="80" height="80" as="geometry" />
        </mxCell>
        <mxCell id="u3RiiRPmAZO3Tr13F04o-216" style="edgeStyle=orthogonalEdgeStyle;rounded=0;orthogonalLoop=1;jettySize=auto;html=1;exitX=0.5;exitY=1;exitDx=0;exitDy=0;entryX=0.5;entryY=0;entryDx=0;entryDy=0;" edge="1" parent="WIyWlLk6GJQsqaUBKTNV-1" source="u3RiiRPmAZO3Tr13F04o-215" target="u3RiiRPmAZO3Tr13F04o-184">
          <mxGeometry relative="1" as="geometry" />
        </mxCell>
        <mxCell id="u3RiiRPmAZO3Tr13F04o-215" value="Sample \(\theta\)&#39;s from prior distribution \(p(\theta)\)&amp;nbsp;&lt;span style=&quot;background-color: initial;&quot;&gt;&lt;b&gt;n_datasets&lt;/b&gt; times&lt;/span&gt;" style="rounded=1;whiteSpace=wrap;html=1;" vertex="1" parent="WIyWlLk6GJQsqaUBKTNV-1">
          <mxGeometry x="351" y="1620" width="125" height="60" as="geometry" />
        </mxCell>
        <mxCell id="u3RiiRPmAZO3Tr13F04o-217" value="single sample monte carlo" style="text;html=1;align=center;verticalAlign=middle;whiteSpace=wrap;rounded=0;" vertex="1" parent="WIyWlLk6GJQsqaUBKTNV-1">
          <mxGeometry x="358.12" y="1820" width="105.88" height="30" as="geometry" />
        </mxCell>
        <mxCell id="u3RiiRPmAZO3Tr13F04o-222" value="&lt;h1 style=&quot;margin-top: 0px;&quot;&gt;Hypothesis &lt;br&gt;Bias Against p = 1&lt;/h1&gt;" style="text;html=1;whiteSpace=wrap;overflow=hidden;rounded=0;fontColor=default;align=center;labelPosition=center;verticalLabelPosition=middle;verticalAlign=middle;glass=0;fillColor=none;gradientColor=none;strokeColor=default;perimeterSpacing=0;" vertex="1" parent="WIyWlLk6GJQsqaUBKTNV-1">
          <mxGeometry x="10.000000000000057" y="-1160" width="216" height="60" as="geometry" />
        </mxCell>
        <mxCell id="u3RiiRPmAZO3Tr13F04o-273" style="edgeStyle=orthogonalEdgeStyle;rounded=0;orthogonalLoop=1;jettySize=auto;html=1;exitX=0.5;exitY=1;exitDx=0;exitDy=0;" edge="1" parent="WIyWlLk6GJQsqaUBKTNV-1" source="u3RiiRPmAZO3Tr13F04o-228" target="u3RiiRPmAZO3Tr13F04o-229">
          <mxGeometry relative="1" as="geometry" />
        </mxCell>
        <mxCell id="u3RiiRPmAZO3Tr13F04o-228" value="Sample \(\theta\)&#39;s from prior distribution \(p(\theta)\)&amp;nbsp;&lt;span style=&quot;background-color: initial;&quot;&gt;&lt;b&gt;n_marginal&lt;/b&gt; times&lt;/span&gt;" style="rounded=1;whiteSpace=wrap;html=1;" vertex="1" parent="WIyWlLk6GJQsqaUBKTNV-1">
          <mxGeometry x="474" y="-1025.79" width="125" height="60" as="geometry" />
        </mxCell>
        <mxCell id="u3RiiRPmAZO3Tr13F04o-284" style="edgeStyle=orthogonalEdgeStyle;rounded=0;orthogonalLoop=1;jettySize=auto;html=1;exitX=0.5;exitY=1;exitDx=0;exitDy=0;" edge="1" parent="WIyWlLk6GJQsqaUBKTNV-1" source="u3RiiRPmAZO3Tr13F04o-229">
          <mxGeometry relative="1" as="geometry">
            <mxPoint x="537" y="-760" as="targetPoint" />
            <Array as="points">
              <mxPoint x="537" y="-780" />
              <mxPoint x="537" y="-780" />
            </Array>
          </mxGeometry>
        </mxCell>
        <mxCell id="u3RiiRPmAZO3Tr13F04o-229" value="&lt;h3&gt;\(\theta\)&lt;/h3&gt;" style="ellipse;whiteSpace=wrap;html=1;rounded=1;" vertex="1" parent="WIyWlLk6GJQsqaUBKTNV-1">
          <mxGeometry x="511.5" y="-887.9899999999999" width="50" height="50" as="geometry" />
        </mxCell>
        <mxCell id="u3RiiRPmAZO3Tr13F04o-271" style="edgeStyle=orthogonalEdgeStyle;rounded=0;orthogonalLoop=1;jettySize=auto;html=1;exitX=0.5;exitY=1;exitDx=0;exitDy=0;" edge="1" parent="WIyWlLk6GJQsqaUBKTNV-1" source="u3RiiRPmAZO3Tr13F04o-232" target="u3RiiRPmAZO3Tr13F04o-245">
          <mxGeometry relative="1" as="geometry" />
        </mxCell>
        <mxCell id="u3RiiRPmAZO3Tr13F04o-232" value="Sample data sets or sufficient statistic from \(p(x|\theta_0)\)&lt;div&gt;&lt;b&gt;n_datasets&lt;/b&gt; times&lt;/div&gt;" style="rounded=1;whiteSpace=wrap;html=1;fontSize=12;glass=0;strokeWidth=1;shadow=0;" vertex="1" parent="WIyWlLk6GJQsqaUBKTNV-1">
          <mxGeometry x="218.06" y="-1025.79" width="130" height="70" as="geometry" />
        </mxCell>
        <mxCell id="u3RiiRPmAZO3Tr13F04o-233" value="\(x_i\) is either a data set or a sufficient statistic" style="text;html=1;align=center;verticalAlign=middle;whiteSpace=wrap;rounded=0;" vertex="1" parent="WIyWlLk6GJQsqaUBKTNV-1">
          <mxGeometry x="128.01000000000005" y="-794.9999999999999" width="130" height="30" as="geometry" />
        </mxCell>
        <mxCell id="u3RiiRPmAZO3Tr13F04o-248" value="&lt;span style=&quot;text-wrap: nowrap;&quot;&gt;There are&amp;nbsp;&lt;/span&gt;&lt;b style=&quot;text-wrap: nowrap;&quot;&gt;n_marginal&amp;nbsp;&lt;/b&gt;&lt;div&gt;&lt;span style=&quot;text-wrap: nowrap;&quot;&gt;likelihood evaluations of \(x_i\)&lt;/span&gt;&lt;/div&gt;" style="text;html=1;align=center;verticalAlign=middle;whiteSpace=wrap;rounded=0;fillColor=none;" vertex="1" parent="WIyWlLk6GJQsqaUBKTNV-1">
          <mxGeometry x="576.63" y="-800" width="156" height="40" as="geometry" />
        </mxCell>
        <mxCell id="u3RiiRPmAZO3Tr13F04o-258" value="" style="edgeStyle=orthogonalEdgeStyle;rounded=0;orthogonalLoop=1;jettySize=auto;html=1;" edge="1" parent="WIyWlLk6GJQsqaUBKTNV-1" source="u3RiiRPmAZO3Tr13F04o-259" target="u3RiiRPmAZO3Tr13F04o-260">
          <mxGeometry relative="1" as="geometry" />
        </mxCell>
        <mxCell id="u3RiiRPmAZO3Tr13F04o-259" value="average True/False" style="whiteSpace=wrap;html=1;fillColor=none;rounded=0;" vertex="1" parent="WIyWlLk6GJQsqaUBKTNV-1">
          <mxGeometry x="486.01" y="-590.1" width="120" height="32.19" as="geometry" />
        </mxCell>
        <mxCell id="u3RiiRPmAZO3Tr13F04o-260" value="Bias" style="rhombus;whiteSpace=wrap;html=1;fillColor=none;rounded=0;" vertex="1" parent="WIyWlLk6GJQsqaUBKTNV-1">
          <mxGeometry x="670" y="-614.005" width="80" height="80" as="geometry" />
        </mxCell>
        <mxCell id="u3RiiRPmAZO3Tr13F04o-261" style="edgeStyle=orthogonalEdgeStyle;rounded=0;orthogonalLoop=1;jettySize=auto;html=1;exitX=0.5;exitY=1;exitDx=0;exitDy=0;entryX=0.5;entryY=0;entryDx=0;entryDy=0;" edge="1" parent="WIyWlLk6GJQsqaUBKTNV-1" source="u3RiiRPmAZO3Tr13F04o-262" target="u3RiiRPmAZO3Tr13F04o-232">
          <mxGeometry relative="1" as="geometry" />
        </mxCell>
        <mxCell id="u3RiiRPmAZO3Tr13F04o-262" value="Choose hypothesis \(\theta_0\)" style="rounded=1;whiteSpace=wrap;html=1;" vertex="1" parent="WIyWlLk6GJQsqaUBKTNV-1">
          <mxGeometry x="217.59000000000003" y="-1080" width="130.94" height="30" as="geometry" />
        </mxCell>
        <mxCell id="u3RiiRPmAZO3Tr13F04o-269" value="" style="group" vertex="1" connectable="0" parent="WIyWlLk6GJQsqaUBKTNV-1">
          <mxGeometry x="143.68999999999994" y="-911.5849999999999" width="278.75" height="97.19000000000003" as="geometry" />
        </mxCell>
        <mxCell id="u3RiiRPmAZO3Tr13F04o-282" style="edgeStyle=orthogonalEdgeStyle;rounded=0;orthogonalLoop=1;jettySize=auto;html=1;exitX=1;exitY=0.5;exitDx=0;exitDy=0;" edge="1" parent="u3RiiRPmAZO3Tr13F04o-269" source="u3RiiRPmAZO3Tr13F04o-245">
          <mxGeometry relative="1" as="geometry">
            <mxPoint x="336.31000000000006" y="151.58499999999992" as="targetPoint" />
          </mxGeometry>
        </mxCell>
        <mxCell id="u3RiiRPmAZO3Tr13F04o-245" value="" style="ellipse;whiteSpace=wrap;html=1;rotation=0;fillColor=none;container=0;" vertex="1" parent="u3RiiRPmAZO3Tr13F04o-269">
          <mxGeometry y="2.842170943040401e-14" width="278.75" height="97.19" as="geometry" />
        </mxCell>
        <mxCell id="u3RiiRPmAZO3Tr13F04o-240" value="&lt;h3&gt;\(x_1\)&lt;/h3&gt;" style="ellipse;whiteSpace=wrap;html=1;rounded=1;container=0;rotation=0;" vertex="1" parent="u3RiiRPmAZO3Tr13F04o-269">
          <mxGeometry x="26.619999999999983" y="23.595000000000027" width="50" height="50" as="geometry" />
        </mxCell>
        <mxCell id="u3RiiRPmAZO3Tr13F04o-241" value="&lt;h3&gt;\(x_2\)&lt;/h3&gt;" style="ellipse;whiteSpace=wrap;html=1;rounded=1;container=0;rotation=0;" vertex="1" parent="u3RiiRPmAZO3Tr13F04o-269">
          <mxGeometry x="106.61999999999998" y="23.595000000000027" width="50" height="50" as="geometry" />
        </mxCell>
        <mxCell id="u3RiiRPmAZO3Tr13F04o-242" value="&lt;h3&gt;\(x_n\)&lt;/h3&gt;" style="ellipse;whiteSpace=wrap;html=1;rounded=1;container=0;rotation=0;" vertex="1" parent="u3RiiRPmAZO3Tr13F04o-269">
          <mxGeometry x="196.61999999999998" y="23.595000000000027" width="50" height="50" as="geometry" />
        </mxCell>
        <mxCell id="u3RiiRPmAZO3Tr13F04o-243" value="\(\dots\)" style="text;html=1;align=center;verticalAlign=middle;whiteSpace=wrap;rounded=0;container=0;rotation=0;" vertex="1" parent="u3RiiRPmAZO3Tr13F04o-269">
          <mxGeometry x="146.61999999999998" y="33.59500000000003" width="60" height="30" as="geometry" />
        </mxCell>
        <mxCell id="u3RiiRPmAZO3Tr13F04o-223" value="evaluate&lt;div&gt;\(p(x_1|\theta_0)\)&lt;br&gt;&lt;/div&gt;" style="rhombus;whiteSpace=wrap;html=1;rounded=1;glass=0;strokeWidth=1;shadow=0;rotation=0;container=0;flipV=0;" vertex="1" parent="WIyWlLk6GJQsqaUBKTNV-1">
          <mxGeometry x="19" y="-749.995" width="110" height="60" as="geometry" />
        </mxCell>
        <mxCell id="u3RiiRPmAZO3Tr13F04o-224" value="evaluate&lt;div&gt;\(p(x_2|\theta_0)\)&lt;br&gt;&lt;/div&gt;" style="rhombus;whiteSpace=wrap;html=1;rounded=1;glass=0;strokeWidth=1;shadow=0;rotation=0;container=0;" vertex="1" parent="WIyWlLk6GJQsqaUBKTNV-1">
          <mxGeometry x="128.01" y="-749.995" width="110" height="60" as="geometry" />
        </mxCell>
        <mxCell id="u3RiiRPmAZO3Tr13F04o-226" value="\(\dots\)" style="text;html=1;align=center;verticalAlign=middle;whiteSpace=wrap;rounded=0;rotation=0;container=0;" vertex="1" parent="WIyWlLk6GJQsqaUBKTNV-1">
          <mxGeometry x="228" y="-734.995" width="60" height="30" as="geometry" />
        </mxCell>
        <mxCell id="u3RiiRPmAZO3Tr13F04o-225" value="evaluate&lt;div&gt;\(p(x_n|\theta_0)\)&lt;br&gt;&lt;/div&gt;" style="rhombus;whiteSpace=wrap;html=1;rounded=1;glass=0;strokeWidth=1;shadow=0;rotation=0;container=0;" vertex="1" parent="WIyWlLk6GJQsqaUBKTNV-1">
          <mxGeometry x="277" y="-749.995" width="110" height="60" as="geometry" />
        </mxCell>
        <mxCell id="u3RiiRPmAZO3Tr13F04o-280" value="" style="rounded=0;whiteSpace=wrap;html=1;fillColor=none;" vertex="1" parent="WIyWlLk6GJQsqaUBKTNV-1">
          <mxGeometry x="17" y="-759.995" width="380" height="80" as="geometry" />
        </mxCell>
        <mxCell id="u3RiiRPmAZO3Tr13F04o-281" style="edgeStyle=orthogonalEdgeStyle;rounded=0;orthogonalLoop=1;jettySize=auto;html=1;exitX=0.5;exitY=1;exitDx=0;exitDy=0;entryX=0.7;entryY=-0.014;entryDx=0;entryDy=0;entryPerimeter=0;" edge="1" parent="WIyWlLk6GJQsqaUBKTNV-1" source="u3RiiRPmAZO3Tr13F04o-245" target="u3RiiRPmAZO3Tr13F04o-280">
          <mxGeometry relative="1" as="geometry" />
        </mxCell>
        <mxCell id="u3RiiRPmAZO3Tr13F04o-291" value="\(\dots\)" style="text;html=1;align=center;verticalAlign=middle;whiteSpace=wrap;rounded=0;rotation=0;container=0;flipH=1;strokeColor=none;strokeWidth=1;autosize=1;" vertex="1" parent="WIyWlLk6GJQsqaUBKTNV-1">
          <mxGeometry x="265.5" y="-587.3383333333334" width="44" height="26.666666666666664" as="geometry" />
        </mxCell>
        <mxCell id="u3RiiRPmAZO3Tr13F04o-292" value="$$\frac{p(x_n|\theta_0)}{p(x_n)} \leq 1$$" style="rounded=0;whiteSpace=wrap;html=1;rotation=0;container=0;flipH=1;strokeColor=default;strokeWidth=1;autosize=1;" vertex="1" parent="WIyWlLk6GJQsqaUBKTNV-1">
          <mxGeometry x="315" y="-600.505" width="100" height="53" as="geometry" />
        </mxCell>
        <mxCell id="u3RiiRPmAZO3Tr13F04o-293" value="$$\frac{p(x_2|\theta_0)}{p(x_2)} \leq 1$$" style="rounded=0;whiteSpace=wrap;html=1;rotation=0;container=0;flipH=1;strokeColor=default;strokeWidth=1;autosize=1;" vertex="1" parent="WIyWlLk6GJQsqaUBKTNV-1">
          <mxGeometry x="157.06" y="-600.505" width="100" height="53" as="geometry" />
        </mxCell>
        <mxCell id="u3RiiRPmAZO3Tr13F04o-294" value="$$\frac{p(x_1|\theta_0)}{p(x_1)} \leq 1$$" style="rounded=0;whiteSpace=wrap;html=1;rotation=0;container=0;flipH=1;strokeColor=default;strokeWidth=1;autosize=1;" vertex="1" parent="WIyWlLk6GJQsqaUBKTNV-1">
          <mxGeometry x="44" y="-600.505" width="100" height="53" as="geometry" />
        </mxCell>
        <mxCell id="u3RiiRPmAZO3Tr13F04o-290" value="" style="group;strokeWidth=1;perimeterSpacing=10;rounded=0;strokeColor=default;autosize=1;container=0;connectable=1;" vertex="1" connectable="0" parent="WIyWlLk6GJQsqaUBKTNV-1">
          <mxGeometry x="30" y="-614.005" width="400" height="80" as="geometry" />
        </mxCell>
        <mxCell id="u3RiiRPmAZO3Tr13F04o-299" style="edgeStyle=orthogonalEdgeStyle;rounded=0;orthogonalLoop=1;jettySize=auto;html=1;exitX=0.5;exitY=1;exitDx=0;exitDy=0;entryX=0.444;entryY=0.109;entryDx=0;entryDy=0;entryPerimeter=0;" edge="1" parent="WIyWlLk6GJQsqaUBKTNV-1" source="u3RiiRPmAZO3Tr13F04o-280" target="u3RiiRPmAZO3Tr13F04o-290">
          <mxGeometry relative="1" as="geometry" />
        </mxCell>
        <mxCell id="u3RiiRPmAZO3Tr13F04o-302" value="" style="group" vertex="1" connectable="0" parent="WIyWlLk6GJQsqaUBKTNV-1">
          <mxGeometry x="411" y="-760" width="400" height="80" as="geometry" />
        </mxCell>
        <mxCell id="u3RiiRPmAZO3Tr13F04o-246" value="\(\dots\)" style="text;html=1;align=center;verticalAlign=middle;whiteSpace=wrap;rounded=0;rotation=0;container=0;flipH=1;strokeColor=none;strokeWidth=1;autosize=1;" vertex="1" parent="u3RiiRPmAZO3Tr13F04o-302">
          <mxGeometry x="232" y="26.66666666666663" width="44" height="26.666666666666664" as="geometry" />
        </mxCell>
        <mxCell id="u3RiiRPmAZO3Tr13F04o-249" value="mean\(\left(p(x_n|\theta)\right)\)&lt;div&gt;&lt;div&gt;\(\approx\)&lt;/div&gt;&lt;div&gt;\(p(x_n)\)&lt;/div&gt;&lt;/div&gt;" style="rounded=0;whiteSpace=wrap;html=1;rotation=0;container=0;flipH=1;strokeColor=default;strokeWidth=1;autosize=1;" vertex="1" parent="u3RiiRPmAZO3Tr13F04o-302">
          <mxGeometry x="290" y="13.333333333333371" width="100" height="53.33333333333333" as="geometry" />
        </mxCell>
        <mxCell id="u3RiiRPmAZO3Tr13F04o-250" value="mean\(\left(p(x_2|\theta)\right)\)&lt;div&gt;&lt;div&gt;\(\approx\)&lt;/div&gt;&lt;div&gt;\(p(x_2)\)&lt;/div&gt;&lt;/div&gt;" style="rounded=0;whiteSpace=wrap;html=1;rotation=0;container=0;flipH=1;strokeColor=default;strokeWidth=1;autosize=1;" vertex="1" parent="u3RiiRPmAZO3Tr13F04o-302">
          <mxGeometry x="120" y="13.333333333333371" width="100" height="53.33333333333333" as="geometry" />
        </mxCell>
        <mxCell id="u3RiiRPmAZO3Tr13F04o-251" value="mean\(\left(p(x_1|\theta)\right)\)&lt;div&gt;\(\approx\)&lt;/div&gt;&lt;div&gt;\(p(x_1)\)&lt;/div&gt;" style="rounded=0;whiteSpace=wrap;html=1;rotation=0;container=0;flipH=1;strokeColor=default;strokeWidth=1;autosize=1;" vertex="1" parent="u3RiiRPmAZO3Tr13F04o-302">
          <mxGeometry x="10.5" y="13.333333333333371" width="100" height="53.33333333333333" as="geometry" />
        </mxCell>
        <mxCell id="u3RiiRPmAZO3Tr13F04o-278" value="" style="group;strokeWidth=1;perimeterSpacing=10;rounded=0;strokeColor=default;autosize=0;container=0;connectable=1;snapToPoint=0;" vertex="1" connectable="0" parent="u3RiiRPmAZO3Tr13F04o-302">
          <mxGeometry width="400" height="80" as="geometry" />
        </mxCell>
        <mxCell id="u3RiiRPmAZO3Tr13F04o-303" value="" style="endArrow=classic;html=1;rounded=0;exitX=0.188;exitY=0.917;exitDx=0;exitDy=0;exitPerimeter=0;entryX=0.736;entryY=0.08;entryDx=0;entryDy=0;entryPerimeter=0;" edge="1" parent="WIyWlLk6GJQsqaUBKTNV-1" source="u3RiiRPmAZO3Tr13F04o-278" target="u3RiiRPmAZO3Tr13F04o-290">
          <mxGeometry width="50" height="50" relative="1" as="geometry">
            <mxPoint x="380" y="-620" as="sourcePoint" />
            <mxPoint x="430" y="-670" as="targetPoint" />
            <Array as="points">
              <mxPoint x="480" y="-650" />
              <mxPoint x="330" y="-650" />
            </Array>
          </mxGeometry>
        </mxCell>
        <mxCell id="u3RiiRPmAZO3Tr13F04o-304" value="" style="endArrow=classic;html=1;rounded=0;exitX=0.983;exitY=0.509;exitDx=0;exitDy=0;exitPerimeter=0;entryX=0;entryY=0.5;entryDx=0;entryDy=0;" edge="1" parent="WIyWlLk6GJQsqaUBKTNV-1" source="u3RiiRPmAZO3Tr13F04o-290" target="u3RiiRPmAZO3Tr13F04o-259">
          <mxGeometry width="50" height="50" relative="1" as="geometry">
            <mxPoint x="380" y="-620" as="sourcePoint" />
            <mxPoint x="430" y="-670" as="targetPoint" />
          </mxGeometry>
        </mxCell>
      </root>
    </mxGraphModel>
  </diagram>
</mxfile>
